<?xml version="1.0" encoding="UTF-8"?>
<svg version="1.1" xmlns="http://www.w3.org/2000/svg" width="500" height="111">
<path d="M0 0 C2.70640136 1.265216 4.93972063 2.62418307 7.22265625 4.546875 C7.83439697 5.05541016 8.4461377 5.56394531 9.07641602 6.08789062 C9.73182373 6.63638672 10.38723145 7.18488281 11.0625 7.75 C22.30955286 17.03253083 34.12383379 25.54631462 46 34 C46.53367188 33.24976563 47.06734375 32.49953125 47.6171875 31.7265625 C56.23239838 19.89182644 65.61705082 8.79431639 80 4 C89.31519175 2.84835658 96.28738109 4.68304384 104 10 C108.01603464 13.31166126 111.75241904 16.92773804 115 21 C115 21.99 115 22.98 115 24 C113.3828125 25.2890625 113.3828125 25.2890625 111.125 26.625 C101.35416776 32.85811712 94.05489846 40.90002805 87 50 C86.19691406 51.010625 85.39382812 52.02125 84.56640625 53.0625 C79.41627 59.59184918 74.67667026 66.30124346 70.22290039 73.32714844 C69.19772359 74.9175272 68.10481779 76.46387835 67 78 C66.34 78 65.68 78 65 78 C64.78085938 77.45472656 64.56171875 76.90945312 64.3359375 76.34765625 C57.51389816 60.12451391 45.61179072 48.67542296 31.76416016 38.32470703 C30.03113256 37.02337742 28.315882 35.70196715 26.60546875 34.37109375 C15.78430766 25.42530771 15.78430766 25.42530771 4 18 C2.90864541 21.27406378 2.76301477 23.86664173 2.6875 27.3125 C2.65011719 28.42238281 2.61273438 29.53226563 2.57421875 30.67578125 C3.2751483 36.14817619 5.87124944 39.02016112 9.9609375 42.5703125 C11.0930776 43.42967791 12.23142905 44.28090546 13.375 45.125 C14.63209188 46.08477757 15.88724453 47.04709946 17.140625 48.01171875 C17.78064453 48.50333496 18.42066406 48.99495117 19.08007812 49.50146484 C51.657257 74.92856606 51.657257 74.92856606 54.8203125 90.9375 C55.44956729 98.16025063 53.807475 104.40853697 51 111 C50.01 110.67 49.02 110.34 48 110 C47.979375 108.80375 47.95875 107.6075 47.9375 106.375 C46.67145053 95.20914702 39.33996522 85.10959264 32 77 C31.40832031 76.33871094 30.81664062 75.67742187 30.20703125 74.99609375 C23.31275935 67.71962341 15.06383444 61.8683023 7.12109375 55.80078125 C-0.59624353 49.80364434 -8.667121 43.27414229 -10.31616211 33.03735352 C-10.47386401 30.95190356 -10.51840518 28.90375823 -10.5 26.8125 C-10.49572998 26.07217529 -10.49145996 25.33185059 -10.48706055 24.5690918 C-10.19320876 14.97166402 -6.68830041 6.87939471 0 0 Z M64.375 28.3125 C60.26659164 32.49923157 57.02286433 36.98560152 54 42 C54.66 42.639375 55.32 43.27875 56 43.9375 C59.85653744 47.7829235 63.40833422 51.90924419 67 56 C70.37937909 52.85155798 72.96108269 49.35028083 75.5625 45.5625 C79.11698557 40.49271289 82.82286884 35.61085385 86.8125 30.875 C87.25601807 30.34334229 87.69953613 29.81168457 88.15649414 29.26391602 C90.85123374 26.11086328 93.68468781 23.48797216 97 21 C96.35870289 17.92969755 96.35870289 17.92969755 94.22265625 17.05078125 C93.15337891 16.68533203 93.15337891 16.68533203 92.0625 16.3125 C91.35222656 16.06113281 90.64195313 15.80976563 89.91015625 15.55078125 C80.19015743 12.7480822 70.67929844 22.27175919 64.375 28.3125 Z " fill="#91C080" transform="translate(10,0)"/>
<path d="M0 0 C18.94333765 -0.44398448 18.94333765 -0.44398448 25 3 C29.54620983 7.7793488 30.350054 11.03215439 30.28515625 17.45703125 C29.76628944 22.08418596 27.34211521 24.78370809 24 27.8125 C20.6476055 29.80298424 17.52277577 30.12516268 13.671875 30.09765625 C12.9509668 30.09515869 12.23005859 30.09266113 11.48730469 30.09008789 C10.58399414 30.08098389 9.68068359 30.07187988 8.75 30.0625 C5.8625 30.041875 2.975 30.02125 0 30 C0 20.1 0 10.2 0 0 Z M9 8 C9 12.62 9 17.24 9 22 C14.94503655 22.65436066 14.94503655 22.65436066 20.0625 20.375 C21.27652573 17.29946814 21.47842171 15.28060601 21 12 C19.62716577 9.45997987 19.62716577 9.45997987 17 8 C14.24150058 7.67361266 11.79515088 7.81365661 9 8 Z " fill="#163364" transform="translate(458,63)"/>
<path d="M0 0 C2.660625 -0.061875 5.32125 -0.12375 8.0625 -0.1875 C8.8862915 -0.21481201 9.71008301 -0.24212402 10.55883789 -0.27026367 C16.508475 -0.33652116 21.30873593 0.65599581 25.9375 4.6875 C27.84927945 8.84843174 27.65847313 13.16568199 26.125 17.4375 C25 19 25 19 23 20 C24.20632452 23.43338516 25.38477184 25.50364585 28 28 C28 28.66 28 29.32 28 30 C24.57541755 30.4189295 21.40649526 30.62173763 18 30 C16.18285193 28.30597645 15.18049268 26.72611524 14.03515625 24.53125 C13.52275391 23.77328125 13.52275391 23.77328125 13 23 C12.01 23 11.02 23 10 23 C10 25.31 10 27.62 10 30 C6.7 30 3.4 30 0 30 C0 20.1 0 10.2 0 0 Z M9 8 C9 10.31 9 12.62 9 15 C12.41656024 15.16677282 12.41656024 15.16677282 16 15 C16.66 14.34 17.32 13.68 18 13 C17.67958603 10.39719432 17.67958603 10.39719432 17 8 C14.36 8 11.72 8 9 8 Z " fill="#163364" transform="translate(278,63)"/>
<path d="M0 0 C2.660625 -0.061875 5.32125 -0.12375 8.0625 -0.1875 C8.8862915 -0.21481201 9.71008301 -0.24212402 10.55883789 -0.27026367 C15.79762723 -0.32860488 19.35976165 0.53191404 24 3 C26.50037398 5.90366011 26.96108222 7.68865773 27.4375 11.5 C26.93351879 15.5318497 25.790071 17.12273928 23 20 C23.4640625 21.1446875 23.4640625 21.1446875 23.9375 22.3125 C24.67893593 24.18789677 25.36228217 26.08684652 26 28 C26.66 28 27.32 28 28 28 C28 28.66 28 29.32 28 30 C24.57591392 30.41886878 21.40664985 30.61748799 18 30 C16.21356004 28.33720385 15.24306617 26.79258958 14.1328125 24.62890625 C13.09890342 22.79798645 13.09890342 22.79798645 10.8671875 22.27734375 C10.25101562 22.18582031 9.63484375 22.09429687 9 22 C9 24.64 9 27.28 9 30 C6.03 30 3.06 30 0 30 C0 20.1 0 10.2 0 0 Z M9 8 C9 10.31 9 12.62 9 15 C12.41656024 15.16677282 12.41656024 15.16677282 16 15 C16.66 14.34 17.32 13.68 18 13 C17.59471099 10.21762345 17.59471099 10.21762345 16 8 C13.66702567 7.95907063 11.33294775 7.95758277 9 8 Z " fill="#163364" transform="translate(310,63)"/>
<path d="M0 0 C4.8345155 3.94654327 6.70116407 7.92548153 7.5625 14.0625 C6.73602923 19.74448657 4.64169936 23.13614601 0.3125 26.875 C-5.26642837 29.66446418 -9.71058049 30.08803568 -15.625 28.4375 C-20.18775045 26.72745363 -22.25441931 24.52462103 -24.9375 20.5 C-26.39070819 16.14037544 -26.75447376 11.94107823 -25.2890625 7.5625 C-23.36455271 3.74637803 -20.97288905 1.10467714 -17.05859375 -0.83984375 C-11.49794173 -2.57050709 -5.29442593 -2.55043314 0 0 Z M-14.8125 7.625 C-16.42748958 10.31664929 -16.81206746 12.36418639 -16.9375 15.5 C-16.03512034 18.39299553 -16.03512034 18.39299553 -13.9375 20.5 C-10.39504507 21.73215824 -8.63732845 21.76437963 -5.125 20.4375 C-2.71120116 18.62886302 -2.71120116 18.62886302 -2 15.625 C-1.93355795 12.30289725 -2.36039037 10.40520195 -3.9375 7.5 C-7.39874505 5.76937748 -11.45620977 5.61122586 -14.8125 7.625 Z " fill="#163364" transform="translate(232.9375,64.5)"/>
<path d="M0 0 C2.97 0 5.94 0 9 0 C9 3.63 9 7.26 9 11 C12.3 11 15.6 11 19 11 C19 7.37 19 3.74 19 0 C21.97 0 24.94 0 28 0 C28 9.9 28 19.8 28 30 C25.03 30 22.06 30 19 30 C19 26.37 19 22.74 19 19 C15.7 19 12.4 19 9 19 C9 22.63 9 26.26 9 30 C6.03 30 3.06 30 0 30 C0 20.1 0 10.2 0 0 Z " fill="#163364" transform="translate(174,63)"/>
<path d="M0 0 C7.92 0 15.84 0 24 0 C24 2.64 24 5.28 24 8 C19.38 8.33 14.76 8.66 10 9 C10 9.33 10 9.66 10 10 C13.96 10.33 17.92 10.66 22 11 C22 13.64 22 16.28 22 19 C18.04 19.33 14.08 19.66 10 20 C10 20.66 10 21.32 10 22 C14.95 22.33 19.9 22.66 25 23 C25 25.31 25 27.62 25 30 C16.75 30 8.5 30 0 30 C0 20.1 0 10.2 0 0 Z " fill="#163364" transform="translate(100,63)"/>
<path d="M0 0 C3.3 0 6.6 0 10 0 C10.33 6.93 10.66 13.86 11 21 C15.60532389 22.45314664 15.60532389 22.45314664 18 21 C18.33 14.07 18.66 7.14 19 0 C21.97 0 24.94 0 28 0 C28.11681812 3.54138618 28.187455 7.0822724 28.25 10.625 C28.30027344 12.12353516 28.30027344 12.12353516 28.3515625 13.65234375 C28.43276635 19.7832342 28.16258641 23.37324029 24 28 C20.04912396 30.63391736 16.70743336 31.05482867 12 31 C6.79109961 29.46294742 3.91491052 27.59658966 1 23 C0.07862791 20.09724349 -0.11816765 17.4888128 -0.09765625 14.453125 C-0.09443359 13.60878906 -0.09121094 12.76445313 -0.08789062 11.89453125 C-0.07951172 11.02183594 -0.07113281 10.14914063 -0.0625 9.25 C-0.05798828 8.36183594 -0.05347656 7.47367187 -0.04882812 6.55859375 C-0.03707422 4.37236684 -0.01913966 2.18617472 0 0 Z " fill="#163364" transform="translate(244,63)"/>
<path d="M0 0 C1.23556641 0.01740234 1.23556641 0.01740234 2.49609375 0.03515625 C3.32238281 0.04417969 4.14867187 0.05320313 5 0.0625 C5.63808594 0.07410156 6.27617187 0.08570313 6.93359375 0.09765625 C8.64971467 3.88476086 10.35849216 7.67506589 12.06054688 11.46850586 C12.64056992 12.75847321 13.22258864 14.04754516 13.80664062 15.33569336 C14.64589534 17.18762023 15.47791583 19.04265064 16.30859375 20.8984375 C16.81132812 22.01387939 17.3140625 23.12932129 17.83203125 24.27856445 C18.93359375 27.09765625 18.93359375 27.09765625 18.93359375 30.09765625 C15.96359375 30.09765625 12.99359375 30.09765625 9.93359375 30.09765625 C9.27359375 28.11765625 8.61359375 26.13765625 7.93359375 24.09765625 C3.97359375 24.09765625 0.01359375 24.09765625 -4.06640625 24.09765625 C-4.39640625 25.74765625 -4.72640625 27.39765625 -5.06640625 29.09765625 C-6.06640625 30.09765625 -6.06640625 30.09765625 -8.1328125 30.1953125 C-8.95652344 30.18371094 -9.78023438 30.17210938 -10.62890625 30.16015625 C-11.45519531 30.15113281 -12.28148437 30.14210938 -13.1328125 30.1328125 C-14.08994141 30.11541016 -14.08994141 30.11541016 -15.06640625 30.09765625 C-13.79355767 26.14290297 -12.37362644 22.3257202 -10.71875 18.515625 C-10.27853516 17.50177734 -9.83832031 16.48792969 -9.38476562 15.44335938 C-8.70124023 13.88004883 -8.70124023 13.88004883 -8.00390625 12.28515625 C-7.54435547 11.22361328 -7.08480469 10.16207031 -6.61132812 9.06835938 C-2.71616667 0.12836326 -2.71616667 0.12836326 0 0 Z M1.93359375 10.09765625 C0.44859375 13.56265625 0.44859375 13.56265625 -1.06640625 17.09765625 C0.91359375 17.09765625 2.89359375 17.09765625 4.93359375 17.09765625 C4.27359375 14.78765625 3.61359375 12.47765625 2.93359375 10.09765625 C2.60359375 10.09765625 2.27359375 10.09765625 1.93359375 10.09765625 Z " fill="#163364" transform="translate(369.06640625,62.90234375)"/>
<path d="M0 0 C2.97 0 5.94 0 9 0 C9 7.26 9 14.52 9 22 C13.62 22 18.24 22 23 22 C23 24.64 23 27.28 23 30 C15.41 30 7.82 30 0 30 C0 20.1 0 10.2 0 0 Z " fill="#163364" transform="translate(431,63)"/>
<path d="M0 0 C2.97 0 5.94 0 9 0 C9 7.26 9 14.52 9 22 C13.62 22 18.24 22 23 22 C23 24.64 23 27.28 23 30 C15.41 30 7.82 30 0 30 C0 20.1 0 10.2 0 0 Z " fill="#163364" transform="translate(405,63)"/>
<path d="M0 0 C2.97 0 5.94 0 9 0 C9 7.26 9 14.52 9 22 C13.62 22 18.24 22 23 22 C23 24.64 23 27.28 23 30 C15.41 30 7.82 30 0 30 C0 20.1 0 10.2 0 0 Z " fill="#163364" transform="translate(134,63)"/>
<path d="M0 0 C2.97 0 5.94 0 9 0 C9 9.9 9 19.8 9 30 C6.03 30 3.06 30 0 30 C0 20.1 0 10.2 0 0 Z " fill="#163364" transform="translate(342,63)"/>
<path d="M0 0 C1 1 1 1 1.25 4.375 C1 8 1 8 -0.125 9.9375 C-2.88980433 11.50422245 -4.88188517 11.38976435 -8 11 C-10.12064392 9.53748695 -10.82274986 8.42267342 -11.8125 6.0625 C-12.05729149 3.3697936 -11.54441616 2.2063088 -10 0 C-6.40967488 -2.82096974 -3.98328623 -1.68183196 0 0 Z M-2 2 C-1 4 -1 4 -1 4 Z M-9 3 C-8 7 -8 7 -8 7 Z M-2 5 C-1 7 -1 7 -1 7 Z M-5 7 C-5.33 7.66 -5.66 8.32 -6 9 C-5.01 8.67 -4.02 8.34 -3 8 C-3.66 7.67 -4.32 7.34 -5 7 Z " fill="#163364" transform="translate(499,57)"/>
</svg>
